<svg width="18" height="18" viewBox="0 0 28 27" fill="none" xmlns="http://www.w3.org/2000/svg">
<path d="M10.0001 18.8327C10.7334 18.8327 11.3614 18.5718 11.8841 18.05C12.4067 17.5282 12.6676 16.9002 12.6667 16.166C12.6659 15.4318 12.405 14.8042 11.8841 14.2833C11.3632 13.7625 10.7352 13.5011 10.0001 13.4993C9.26497 13.4976 8.63742 13.7589 8.11742 14.2833C7.59742 14.8078 7.33608 15.4353 7.33342 16.166C7.33075 16.8967 7.59208 17.5247 8.11742 18.05C8.64275 18.5753 9.27031 18.8362 10.0001 18.8327ZM18.0001 18.8327C18.7334 18.8327 19.3614 18.5718 19.8841 18.05C20.4067 17.5282 20.6676 16.9002 20.6667 16.166C20.6659 15.4318 20.405 14.8042 19.8841 14.2833C19.3632 13.7625 18.7352 13.5011 18.0001 13.4993C17.265 13.4976 16.6374 13.7589 16.1174 14.2833C15.5974 14.8078 15.3361 15.4353 15.3334 16.166C15.3307 16.8967 15.5921 17.5247 16.1174 18.05C16.6427 18.5753 17.2703 18.8362 18.0001 18.8327ZM14.0001 12.166C14.7334 12.166 15.3614 11.9051 15.8841 11.3833C16.4067 10.8616 16.6676 10.2336 16.6667 9.49935C16.6659 8.76513 16.405 8.13757 15.8841 7.61668C15.3632 7.09579 14.7352 6.83446 14.0001 6.83268C13.265 6.8309 12.6374 7.09224 12.1174 7.61668C11.5974 8.14113 11.3361 8.76868 11.3334 9.49935C11.3307 10.23 11.5921 10.858 12.1174 11.3833C12.6427 11.9087 13.2703 12.1696 14.0001 12.166ZM14.0001 26.8327C12.1556 26.8327 10.4223 26.4825 8.80008 25.782C7.17786 25.0816 5.76675 24.1318 4.56675 22.9327C3.36675 21.7336 2.41697 20.3225 1.71742 18.6993C1.01786 17.0762 0.667639 15.3429 0.66675 13.4993C0.665861 11.6558 1.01608 9.92246 1.71742 8.29935C2.41875 6.67624 3.36853 5.26513 4.56675 4.06602C5.76497 2.8669 7.17608 1.91713 8.80008 1.21668C10.4241 0.516238 12.1574 0.166016 14.0001 0.166016C15.8427 0.166016 17.5761 0.516238 19.2001 1.21668C20.8241 1.91713 22.2352 2.8669 23.4334 4.06602C24.6316 5.26513 25.5819 6.67624 26.2841 8.29935C26.9863 9.92246 27.3361 11.6558 27.3334 13.4993C27.3308 15.3429 26.9805 17.0762 26.2828 18.6993C25.585 20.3225 24.6352 21.7336 23.4334 22.9327C22.2316 24.1318 20.8205 25.082 19.2001 25.7833C17.5796 26.4847 15.8463 26.8345 14.0001 26.8327Z" fill="#273368"/>
</svg>
