<svg width="18" height="18" viewBox="0 0 25 29" fill="none" xmlns="http://www.w3.org/2000/svg">
<path d="M15.9375 22.75C14.975 22.75 14.1615 22.4177 13.4969 21.7531C12.8323 21.0885 12.5 20.275 12.5 19.3125C12.5 18.35 12.8323 17.5365 13.4969 16.8719C14.1615 16.2073 14.975 15.875 15.9375 15.875C16.9 15.875 17.7135 16.2073 18.3781 16.8719C19.0427 17.5365 19.375 18.35 19.375 19.3125C19.375 20.275 19.0427 21.0885 18.3781 21.7531C17.7135 22.4177 16.9 22.75 15.9375 22.75ZM2.875 28.25C2.11875 28.25 1.47158 27.981 0.9335 27.4429C0.395417 26.9048 0.125917 26.2572 0.125 25.5V6.25C0.125 5.49375 0.3945 4.84658 0.9335 4.3085C1.4725 3.77042 2.11967 3.50092 2.875 3.5H4.25V0.75H7V3.5H18V0.75H20.75V3.5H22.125C22.8813 3.5 23.5289 3.7695 24.0679 4.3085C24.6069 4.8475 24.8759 5.49467 24.875 6.25V25.5C24.875 26.2563 24.606 26.9039 24.0679 27.4429C23.5298 27.9819 22.8822 28.2509 22.125 28.25H2.875ZM2.875 25.5H22.125V11.75H2.875V25.5Z" fill="#273368"/>
</svg>
