<svg width="14" height="14" viewBox="0 0 14 14" fill="none" xmlns="http://www.w3.org/2000/svg">
<path d="M8.003 0.358684C7.72768 0.127751 7.37062 0 7.0005 0C6.63038 0 6.27332 0.127751 5.998 0.358684L0.498 4.97238C0.341441 5.10358 0.216195 5.26406 0.130399 5.4434C0.0446024 5.62273 0.00017425 5.81691 0 6.01331V12.5996C0 12.971 0.158035 13.3272 0.43934 13.5898C0.720644 13.8525 1.10218 14 1.5 14H3.5C3.89782 14 4.27936 13.8525 4.56066 13.5898C4.84196 13.3272 5 12.971 5 12.5996V8.86537C5 8.74157 5.05268 8.62284 5.14645 8.5353C5.24021 8.44776 5.36739 8.39858 5.5 8.39858H8.5C8.63261 8.39858 8.75979 8.44776 8.85355 8.5353C8.94732 8.62284 9 8.74157 9 8.86537V12.5996C9 12.971 9.15804 13.3272 9.43934 13.5898C9.72064 13.8525 10.1022 14 10.5 14H12.5C12.8978 14 13.2794 13.8525 13.5607 13.5898C13.842 13.3272 14 12.971 14 12.5996V6.01331C14 5.81698 13.9557 5.62284 13.8701 5.44351C13.7844 5.26418 13.6594 5.10367 13.503 4.97238L8.003 0.358684Z" fill="#273368"/>
</svg>
