<svg width="18" height="18" viewBox="0 0 31 28" fill="none" xmlns="http://www.w3.org/2000/svg">
<path fill-rule="evenodd" clip-rule="evenodd" d="M24.536 1.5335V6.134H29.1365C29.5432 6.134 29.9333 6.29556 30.2208 6.58315C30.5084 6.87074 30.67 7.26079 30.67 7.6675V23.0025C30.67 24.2226 30.1853 25.3928 29.3225 26.2555C28.4598 27.1183 27.2896 27.603 26.0695 27.603H4.6005C3.38037 27.603 2.21022 27.1183 1.34746 26.2555C0.484694 25.3928 0 24.2226 0 23.0025V1.5335C0 1.12679 0.161565 0.736739 0.449152 0.449152C0.736739 0.161565 1.12679 0 1.5335 0H23.0025C23.4092 0 23.7993 0.161565 24.0868 0.449152C24.3744 0.736739 24.536 1.12679 24.536 1.5335ZM27.603 23.0025C27.603 23.4092 27.4414 23.7993 27.1538 24.0868C26.8663 24.3744 26.4762 24.536 26.0695 24.536C25.6628 24.536 25.2727 24.3744 24.9851 24.0868C24.6976 23.7993 24.536 23.4092 24.536 23.0025V9.201H27.603V23.0025ZM6.134 7.6675C6.134 7.26079 6.29556 6.87074 6.58315 6.58315C6.87074 6.29556 7.26079 6.134 7.6675 6.134H16.8685C17.2752 6.134 17.6653 6.29556 17.9528 6.58315C18.2404 6.87074 18.402 7.26079 18.402 7.6675C18.402 8.07421 18.2404 8.46426 17.9528 8.75185C17.6653 9.03943 17.2752 9.201 16.8685 9.201H7.6675C7.26079 9.201 6.87074 9.03943 6.58315 8.75185C6.29556 8.46426 6.134 8.07421 6.134 7.6675ZM9.201 13.8015C9.201 13.3948 9.36257 13.0047 9.65015 12.7172C9.93774 12.4296 10.3278 12.268 10.7345 12.268H16.8685C17.2752 12.268 17.6653 12.4296 17.9528 12.7172C18.2404 13.0047 18.402 13.3948 18.402 13.8015C18.402 14.2082 18.2404 14.5983 17.9528 14.8858C17.6653 15.1734 17.2752 15.335 16.8685 15.335H10.7345C10.3278 15.335 9.93774 15.1734 9.65015 14.8858C9.36257 14.5983 9.201 14.2082 9.201 13.8015Z" fill="#273368"/>
</svg>
