<svg width="70" height="70" viewBox="0 0 70 70" fill="none" xmlns="http://www.w3.org/2000/svg">
<g clip-path="url(#clip0_2_3157)">
<path d="M35.2402 13.566C38.3849 13.6011 40.9866 8.90803 41.0216 5.76143C41.0566 2.61456 38.5355 0.0356543 35.3908 0.000360291C32.2461 -0.0346622 29.6682 2.48805 29.6332 5.63464C29.5982 8.78124 32.0952 13.531 35.2399 13.566H35.2402Z" fill="white"/>
<path d="M6.90294 24.9687C9.60889 26.5724 14.9682 26.7833 16.5709 24.0757C18.1736 21.3681 15.4126 16.7671 12.7067 15.1634C10.0007 13.5597 6.50788 14.4548 4.90515 17.1624C3.30241 19.87 4.19698 23.3652 6.90294 24.9687Z" fill="white"/>
<path d="M16.3302 45.5119C14.788 42.7693 9.42548 42.8613 6.68452 44.4042C3.94356 45.9474 2.97166 49.4214 4.51389 52.164C6.05613 54.9066 9.52831 55.8791 12.269 54.3359C15.01 52.7928 17.8725 48.2542 16.3302 45.5116V45.5119Z" fill="white"/>
<path d="M34.7584 56.4377C31.6137 56.4027 29.0119 61.0957 28.9769 64.2423C28.9419 67.3892 31.4628 69.9681 34.6078 70.0034C37.7528 70.0384 40.3304 67.5157 40.3654 64.3691C40.4004 61.2225 37.9034 56.4727 34.7587 56.4377H34.7584Z" fill="white"/>
<path d="M59.8556 35.6019C59.225 35.4931 58.5508 35.3758 57.8491 35.2531C58.5535 35.1458 59.2302 35.0438 59.8629 34.949C64.383 34.2724 70.372 34.592 69.9815 30.8109C69.6052 27.168 55.4739 32.2911 50.8339 26.085C47.9415 18.8951 59.6534 9.46917 56.7372 7.25623C53.7103 4.95941 50.8741 10.2475 47.9497 13.7617C47.5402 14.2537 47.1015 14.7793 46.6446 15.3261C46.904 14.6623 47.1539 14.0248 47.3883 13.4289C49.0627 9.17378 52.3338 4.14357 48.866 2.59145C45.5251 1.09607 42.8935 15.9033 35.2019 16.8209C27.5328 15.7325 25.2305 0.87046 21.8571 2.29091C18.3556 3.76566 21.5144 8.86727 23.0938 13.1585C23.315 13.7593 23.5505 14.4022 23.7952 15.0717C23.3502 14.5149 22.9234 13.9795 22.5251 13.4786C19.6794 9.90003 16.9615 4.55027 13.8841 6.77922C10.9193 8.92673 22.419 18.6106 19.3677 25.7346C14.591 31.8358 0.576842 26.4 0.119654 30.0336C-0.354628 33.8052 5.6401 33.6187 10.1442 34.3957C10.7747 34.5046 11.449 34.6219 12.1509 34.7446C11.4465 34.8518 10.7698 34.9539 10.1368 35.0486C5.61677 35.7252 -0.372535 35.4057 0.0181774 39.1867C0.39451 42.8296 14.5258 37.7066 19.1658 43.9126C22.0582 51.1025 10.3463 60.5285 13.2625 62.7414C16.2897 65.0382 19.1257 59.7501 22.05 56.2359C22.4595 55.744 22.8982 55.2181 23.3551 54.6716C23.0957 55.3354 22.8458 55.9731 22.6114 56.5688C20.937 60.8239 17.6659 65.8541 21.1338 67.4062C24.4749 68.9016 27.1062 54.0944 34.7979 53.1767C42.467 54.2651 44.7692 69.1272 48.1426 67.7067C51.6441 66.232 48.4853 61.1304 46.9059 56.8392C46.6848 56.2384 46.449 55.5955 46.2045 54.926C46.6495 55.4828 47.0763 56.0179 47.4746 56.5191C50.3203 60.0976 53.0382 65.4474 56.1156 63.2184C59.0804 61.0709 47.5807 51.3871 50.632 44.2631C55.4085 38.1618 69.4229 43.5977 69.8801 39.9643C70.3544 36.1927 64.3596 36.3792 59.8556 35.6022V35.6019Z" fill="white"/>
<path d="M63.1025 45.032C60.3965 43.4283 55.0373 43.2174 53.4345 45.925C51.8318 48.6326 54.5928 53.2336 57.2988 54.8373C60.0047 56.441 63.4976 55.5461 65.1003 52.8385C66.703 50.1309 65.8085 46.6357 63.1025 45.0323V45.032Z" fill="white"/>
<path d="M53.6676 24.4868C55.2098 27.2294 60.5723 27.1374 63.3133 25.5945C66.0543 24.0513 67.0262 20.5773 65.4842 17.8347C63.942 15.0921 60.4698 14.1196 57.7288 15.6628C54.9879 17.2059 52.1256 21.7445 53.6676 24.4871V24.4868Z" fill="white"/>
<g style="mix-blend-mode:multiply">
<path d="M48.8689 2.59145C45.5281 1.09607 42.8965 15.9033 35.2049 16.8209C27.5358 15.7325 25.2335 0.87046 21.8601 2.29091C18.3586 3.76566 21.5174 8.86727 23.0968 13.1585C25.2029 18.8802 28.6222 28.4155 28.6222 28.4155C28.6222 28.4155 30.6099 34.9501 35.0027 34.999C39.3958 35.0478 41.5282 28.5592 41.5282 28.5592C41.5282 28.5592 45.1585 19.1023 47.391 13.4289C49.0654 9.17379 52.3365 4.14357 48.8687 2.59145H48.8689Z" fill="#FFD400"/>
</g>
<path d="M41.0214 5.76143C40.9864 8.90803 38.3846 13.601 35.2399 13.566C32.0952 13.531 29.5982 8.78124 29.6332 5.63464C29.6679 2.48804 32.2458 -0.0343963 35.3905 0.000354797C38.5355 0.0353773 41.0564 2.61456 41.0214 5.76143Z" fill="#FFD400"/>
<g style="mix-blend-mode:multiply">
<path d="M13.8847 6.78419C10.9199 8.9317 22.4196 18.6156 19.3683 25.7395C14.5915 31.8408 0.577424 26.405 0.120235 30.0386C-0.354047 33.8102 5.64068 33.6237 10.1447 34.4007C16.15 35.4367 26.1124 37.241 26.1124 37.241C26.1124 37.241 32.7618 38.7858 35.0006 35.0037C37.2396 31.2212 32.6897 26.1291 32.6897 26.1291C32.6897 26.1291 26.32 18.2548 22.5257 13.4835C19.68 9.905 16.9621 4.55524 13.8847 6.78419Z" fill="#F7941D"/>
</g>
<path d="M12.7067 15.1711C15.4126 16.7748 18.1736 21.3758 16.5709 24.0834C14.9682 26.791 9.60889 26.5798 6.90294 24.9764C4.19698 23.3727 3.30241 19.8777 4.90515 17.1701C6.50788 14.4625 10.0007 13.5677 12.7067 15.1711Z" fill="#F7941D"/>
<g style="mix-blend-mode:multiply">
<path d="M0.0181774 39.1914C0.39451 42.8343 14.5258 37.7112 19.1658 43.9172C22.0582 51.1072 10.3463 60.5331 13.2625 62.7461C16.2897 65.0429 19.1257 59.7548 22.05 56.2406C25.9493 51.5549 32.4924 43.8241 32.4924 43.8241C32.4924 43.8241 37.1541 38.8344 35 35.0033C32.8457 31.172 26.1637 32.5686 26.1637 32.5686C26.1637 32.5686 16.1636 34.1511 10.1368 35.0533C5.61677 35.7299 -0.372535 35.4103 0.0181774 39.1914Z" fill="#ED1C24"/>
</g>
<path d="M6.6844 44.4043C9.42536 42.8612 14.7879 42.7694 16.3301 45.512C17.8721 48.2546 15.0098 52.7932 12.2689 54.3363C9.52792 55.8795 6.05573 54.907 4.51377 52.1644C2.97182 49.4218 3.94344 45.9478 6.6844 44.4046V44.4043Z" fill="#ED1C24"/>
<g style="mix-blend-mode:multiply">
<path d="M21.1334 67.4075C24.4745 68.9029 27.1058 54.0957 34.7975 53.1781C42.4666 54.2665 44.7688 69.1285 48.1422 67.7081C51.6437 66.2333 48.4849 61.1317 46.9055 56.8405C44.7994 51.1185 41.3802 41.5834 41.3802 41.5834C41.3802 41.5834 39.3924 35.0489 34.9996 35.0003C30.6065 34.9514 28.4742 41.4401 28.4742 41.4401C28.4742 41.4401 24.8438 50.897 22.6113 56.5704C20.9369 60.8255 17.6658 65.8557 21.1336 67.4078L21.1334 67.4075Z" fill="#1C75BC"/>
</g>
<path d="M28.9772 64.2423C29.0122 61.0957 31.614 56.4027 34.7587 56.4377C37.9034 56.4727 40.4004 61.2225 40.3654 64.3691C40.3304 67.5157 37.7528 70.0384 34.6078 70.0034C31.4628 69.9683 28.9422 67.3892 28.9769 64.2423H28.9772Z" fill="#1C75BC"/>
<g style="mix-blend-mode:multiply">
<path d="M56.1182 63.2219C59.083 61.0744 47.5833 51.3906 50.6347 44.2666C55.4111 38.1654 69.4255 43.6012 69.8827 39.9678C70.357 36.1962 64.3622 36.3827 59.8582 35.6057C53.8529 34.5697 43.8905 32.7654 43.8905 32.7654C43.8905 32.7654 37.2411 31.2206 35.0023 35.003C32.7633 38.7855 37.3132 43.8776 37.3132 43.8776C37.3132 43.8776 43.683 51.7519 47.4772 56.5231C50.3229 60.1017 53.0408 65.4514 56.1182 63.2225V63.2219Z" fill="#27AAE1"/>
</g>
<path d="M57.2988 54.8373C54.5928 53.2336 51.8318 48.6326 53.4345 45.925C55.0373 43.2174 60.3965 43.4283 63.1025 45.032C65.8085 46.6357 66.703 50.1307 65.1003 52.8383C63.4976 55.5459 60.0047 56.4407 57.2988 54.837V54.8373Z" fill="#27AAE1"/>
<g style="mix-blend-mode:multiply">
<path d="M69.98 30.8098C69.6037 27.1669 55.4723 32.2899 50.8323 26.0839C47.94 18.894 59.6519 9.46801 56.7356 7.25508C53.7087 4.95825 50.8725 10.2464 47.9481 13.7606C44.0489 18.4463 37.5058 26.177 37.5058 26.177C37.5058 26.177 32.8441 31.1668 34.9982 34.9978C37.1522 38.8291 43.8345 37.4325 43.8345 37.4325C43.8345 37.4325 53.8346 35.85 59.8613 34.9478C64.3814 34.2713 70.3704 34.5908 69.98 30.8098Z" fill="#006838"/>
</g>
<path d="M63.3134 25.5948C60.5724 27.1379 55.2099 27.2297 53.6677 24.4871C52.1254 21.7445 54.988 17.2059 57.7289 15.6628C60.4699 14.1196 63.9421 15.0921 65.4843 17.8347C67.0263 20.5773 66.0546 24.0516 63.3134 25.5945V25.5948Z" fill="#006838"/>
</g>
<defs>
<clipPath id="clip0_2_3157">
<rect width="70" height="70" fill="white"/>
</clipPath>
</defs>
</svg>
