<svg width="157" height="69" viewBox="0 0 157 69" fill="none" xmlns="http://www.w3.org/2000/svg">
<g style="mix-blend-mode:multiply">
<path d="M91.6967 30.9495C89.9303 32.9867 85.2453 36.6089 78.1681 36.7253C71.0908 36.8418 66.3988 33.3695 65.5857 32.6217C52.5002 22.4075 38.9219 1.36401 38.9219 1.36401L77.5876 68.5928L117.427 0.0703125C117.427 0.0703125 104.086 18.0039 91.6967 30.9495Z" fill="#FFCB05"/>
</g>
<g style="mix-blend-mode:multiply">
<path d="M87.7476 24.1737C87.839 29.7216 83.5084 34.292 78.0752 34.3814C72.6415 34.4707 68.1632 30.046 68.0717 24.4981C67.9803 18.9497 72.3109 14.3803 77.7447 14.2904C83.1778 14.2005 87.6567 18.6258 87.7476 24.1737Z" fill="#FFCB05"/>
</g>
<g style="mix-blend-mode:multiply">
<path d="M85.1268 48.8414C84.1974 49.9217 81.7332 51.8436 78.0096 51.9048C74.2859 51.966 71.8174 50.1237 71.39 49.7268C64.5048 44.3067 57.3594 33.1416 57.3594 33.1416L77.7066 68.8116L98.6614 32.4609C98.6614 32.4609 91.6436 41.9744 85.1268 48.8419V48.8414Z" fill="#FFCB05"/>
</g>
<g style="mix-blend-mode:multiply">
<path d="M81.6287 58.2434C81.1391 58.8131 79.8397 59.8257 77.8775 59.8582C75.9148 59.8907 74.6137 58.9192 74.3881 58.7102C70.7591 55.8531 66.9922 49.9679 66.9922 49.9679L77.7173 68.7706L88.7633 49.6094C88.7633 49.6094 85.064 54.6239 81.6287 58.2439V58.2434Z" fill="#FFCB05"/>
</g>
<g style="mix-blend-mode:multiply">
<path d="M51.9844 37.7446C52.8635 40.2946 53.655 46.1668 50.2175 52.3602C46.7795 58.5536 41.4302 60.8848 40.3758 61.2157C24.9954 67.4519 0 68.7012 0 68.7012L77.4975 68.797L38.1334 0C38.1334 0 46.9781 20.5318 51.9844 37.7446Z" fill="#F15A29"/>
</g>
<g style="mix-blend-mode:multiply">
<path d="M43.397 37.3636C48.1891 40.0284 49.9344 46.0436 47.2954 50.7987C44.6559 55.5533 38.632 57.2477 33.8399 54.5823C29.0478 51.917 27.3025 45.9023 29.9415 41.1472C32.5805 36.3926 38.6049 34.6982 43.397 37.3636Z" fill="#F15A29"/>
</g>
<g style="mix-blend-mode:multiply">
<path d="M64.1781 52.384C64.6483 53.7297 65.0784 56.8272 63.2698 60.0856C61.4613 63.3439 58.633 64.5628 58.0758 64.7351C49.9441 67.9934 36.7109 68.6048 36.7109 68.6048L77.7451 68.8013L56.7731 32.4609C56.7731 32.4609 61.4948 43.3011 64.1781 52.384Z" fill="#F15A29"/>
</g>
<g style="mix-blend-mode:multiply">
<path d="M70.5645 60.1189C70.8123 60.8283 71.0389 62.461 70.0857 64.1781C69.1325 65.8953 67.6415 66.5381 67.3477 66.6291C63.0615 68.3468 56.0859 68.669 56.0859 68.669L77.7158 68.7729L66.6607 49.6172C66.6607 49.6172 69.1498 55.3313 70.5639 60.1194L70.5645 60.1189Z" fill="#F15A29"/>
</g>
<g style="mix-blend-mode:multiply">
<path d="M117.411 61.9879C114.766 61.4751 109.289 59.2251 105.65 53.1481C102.01 47.0712 102.668 41.2682 102.909 40.189C105.204 23.7381 116.621 1.44531 116.621 1.44531L77.7891 68.5777L156.993 68.8528C156.993 68.8528 134.807 66.254 117.411 61.9874V61.9879Z" fill="#1C75BC"/>
</g>
<g style="mix-blend-mode:multiply">
<path d="M122.058 54.7171C117.346 57.5449 111.261 56.0552 108.467 51.3899C105.673 46.7242 107.228 40.6505 111.94 37.8227C116.652 34.9949 122.737 36.4846 125.531 41.1498C128.325 45.815 126.77 51.8892 122.058 54.7171Z" fill="#1C75BC"/>
</g>
<g style="mix-blend-mode:multiply">
<path d="M98.6518 65.2414C97.2523 64.976 94.3574 63.8004 92.4429 60.6032C90.5283 57.4061 90.8875 54.3449 91.0173 53.7757C92.2643 45.0973 98.3516 33.3203 98.3516 33.3203L77.6641 68.7937L119.591 68.784C119.591 68.784 107.851 67.4573 98.6513 65.2414H98.6518Z" fill="#1C75BC"/>
</g>
<g style="mix-blend-mode:multiply">
<path d="M88.7742 66.9048C88.0368 66.7651 86.5107 66.1451 85.5012 64.4598C84.4917 62.7746 84.6816 61.1609 84.7498 60.8609C85.4071 56.2861 88.6157 50.0781 88.6157 50.0781L77.7109 68.7768L99.8115 68.7714C99.8115 68.7714 93.6231 68.0718 88.7737 66.9043L88.7742 66.9048Z" fill="#1C75BC"/>
</g>
</svg>
