<svg width="77" height="70" viewBox="0 0 77 70" fill="none" xmlns="http://www.w3.org/2000/svg">
<g clip-path="url(#clip0_2_3148)">
<path fill-rule="evenodd" clip-rule="evenodd" d="M9.34936 32.4464C7.73796 27.6231 1.13435 29.7842 2.96693 35.8289C7.73796 53.1802 17.28 64.0168 28.1491 68.1198C39.8081 72.6925 51.2144 68.6209 57.3124 59.6947C59.9665 55.8424 59.9665 54.4016 57.0597 57.7842C50.7088 64.5493 41.4195 65.2383 35.0371 58.7551C29.1918 52.9609 26.8221 42.1242 31.056 27.216C32.383 21.6723 28.4019 22.8625 26.8221 28.1869C24.168 39.0236 16.7429 65.5202 9.31777 32.5403L9.34936 32.4464Z" fill="#00A658"/>
<path fill-rule="evenodd" clip-rule="evenodd" d="M13.5862 30.5397C14.9133 28.1281 15.9559 26.4368 17.3146 25.4972C18.3572 24.7769 19.1472 24.2757 20.2214 24.5263C22.3384 24.9961 23.6654 26.4368 24.2025 29.099C24.7397 31.7612 24.2025 34.3921 22.8755 37.7746C22.0856 39.9357 21.0113 41.627 19.9687 42.8171C19.4315 43.0677 18.8944 43.5375 18.3888 43.788C16.5247 44.759 14.9449 44.2578 13.365 42.0968C13.1123 41.627 12.8279 41.1258 12.5751 40.1862C12.038 38.0252 12.2908 34.6426 13.6494 30.5397H13.5862Z" fill="#00A658"/>
<path fill-rule="evenodd" clip-rule="evenodd" d="M50.7126 13.6891C48.5956 11.9978 46.7314 11.0269 45.1516 10.8077C43.8246 10.5571 42.7819 10.5571 41.9604 11.2775C40.3806 12.4676 40.0962 14.1589 40.8861 16.8211C41.676 19.2327 43.5402 21.3938 46.1943 24.056C48.0585 25.4967 49.9227 26.4676 51.2497 26.9374C52.0396 27.188 52.5767 27.188 53.3666 27.188C55.2308 27.188 56.5579 26.2171 56.8106 23.8054C56.8106 23.3356 56.8106 22.584 56.5579 21.8636C55.768 19.7025 53.9038 16.8211 50.7442 13.6891H50.7126Z" fill="#00A3D3"/>
<path fill-rule="evenodd" clip-rule="evenodd" d="M54.6897 14.1575C59.4608 16.5691 62.3992 10.5557 56.2695 7.64297C39.5551 -0.78209 24.4521 -1.75301 13.8674 2.3499C2.46117 6.92261 -2.05709 17.0389 0.849761 27.1553C2.1768 31.4774 3.21948 32.4483 2.71394 28.1262C1.63967 19.4506 7.48497 12.9674 16.7743 13.1866C24.9893 13.4372 35.3212 18.9808 44.3578 31.7593C47.8018 36.5826 49.4132 32.9495 46.2219 28.3767C39.5867 19.4506 23.6938 -3.19372 54.7213 14.1575H54.6897Z" fill="#00A3D3"/>
<path fill-rule="evenodd" clip-rule="evenodd" d="M51.2499 53.1785C47.2687 56.3105 52.2925 60.6639 57.0636 56.7803C71.3767 45.9436 77.4747 33.8854 76.9376 23.5499C76.4005 12.7132 67.9327 5.47827 56.7792 4.50735C52.2609 4.03755 50.6811 4.50735 55.1994 5.72883C64.2043 7.63934 68.7226 14.6237 65.2786 22.1091C62.3717 29.0935 53.0824 35.608 37.158 38.4895C31.3127 39.6796 34.2511 42.3418 39.812 41.1203C51.2183 38.9593 79.3073 33.6662 51.2183 53.1785H51.2499Z" fill="#AD498C"/>
<path fill-rule="evenodd" clip-rule="evenodd" d="M47.2717 49.8017C44.6176 49.8017 42.5007 49.5512 40.9209 49.0814C39.8466 48.5803 39.0567 48.1105 38.8039 47.1709C38.5196 45.2603 39.3411 43.5691 41.7108 42.097C43.8277 40.6563 46.7346 39.936 50.4629 39.4348C52.8327 39.1843 54.6968 39.4348 56.2766 39.9046C56.8138 39.9046 57.3509 40.1552 57.8565 40.625C59.4363 41.5959 59.7206 43.0366 58.3936 44.9785C58.1092 45.4483 57.6037 45.9494 56.8138 46.4192C54.9496 47.8599 51.79 49.0814 47.2717 49.8017Z" fill="#AD498C"/>
</g>
<defs>
<clipPath id="clip0_2_3148">
<rect width="77" height="70" fill="white"/>
</clipPath>
</defs>
</svg>
