<svg width="43" height="20" viewBox="0 0 43 20" fill="none" xmlns="http://www.w3.org/2000/svg">
<path d="M30.5664 10.2324V9.0957H31.5859C32.0195 9.0957 32.3711 8.97656 32.6406 8.73828C32.9102 8.49609 33.0449 8.18555 33.0449 7.80664C33.0449 7.43164 32.916 7.13281 32.6582 6.91016C32.4043 6.6875 32.0449 6.57617 31.5801 6.57617C31.1465 6.57617 30.793 6.69531 30.5195 6.93359C30.2461 7.16797 30.0938 7.48242 30.0625 7.87695H28.6562C28.6992 7.11523 28.9902 6.50781 29.5293 6.05469C30.0723 5.60156 30.7793 5.375 31.6504 5.375C32.4863 5.375 33.1699 5.58203 33.7012 5.99609C34.2324 6.41016 34.498 6.94531 34.498 7.60156C34.498 8.12109 34.3379 8.56055 34.0176 8.91992C33.7012 9.27539 33.2793 9.49805 32.752 9.58789V9.62305C33.3887 9.66992 33.8945 9.87695 34.2695 10.2441C34.6484 10.6074 34.8379 11.082 34.8379 11.668C34.8379 12.4102 34.5352 13.0137 33.9297 13.4785C33.3281 13.9395 32.5625 14.1699 31.6328 14.1699C30.7109 14.1699 29.9668 13.9395 29.4004 13.4785C28.834 13.0137 28.5312 12.4023 28.4922 11.6445H29.9336C29.9688 12.0352 30.1387 12.3477 30.4434 12.582C30.748 12.8164 31.1484 12.9336 31.6445 12.9336C32.1328 12.9336 32.5312 12.8105 32.8398 12.5645C33.1484 12.3184 33.3027 12 33.3027 11.6094C33.3027 11.1836 33.1504 10.8477 32.8457 10.6016C32.5449 10.3555 32.1328 10.2324 31.6094 10.2324H30.5664ZM35.9995 8.05273C35.9995 7.27148 36.2807 6.63086 36.8432 6.13086C37.4057 5.62695 38.1245 5.375 38.9995 5.375C39.8393 5.375 40.5307 5.60352 41.0737 6.06055C41.6205 6.51758 41.894 7.08984 41.894 7.77734C41.894 8.25 41.7612 8.69727 41.4955 9.11914C41.2338 9.53711 40.7983 10.0527 40.1889 10.666L38.0971 12.7344V12.7637H42.0229V14H36.0815V12.9805L39.1928 9.88672C39.6733 9.39453 39.9975 9.00977 40.1655 8.73242C40.3334 8.45508 40.4174 8.1582 40.4174 7.8418C40.4174 7.49023 40.2768 7.19336 39.9955 6.95117C39.7182 6.70898 39.3705 6.58789 38.9526 6.58789C38.5112 6.58789 38.144 6.72656 37.851 7.00391C37.562 7.28125 37.4174 7.62891 37.4174 8.04688V8.07031H35.9995V8.05273Z" fill="#A6A6A6"/>
<path d="M7.08317 15.8333H6.6665C3.33317 15.8333 1.6665 15 1.6665 10.8333V6.66663C1.6665 3.33329 3.33317 1.66663 6.6665 1.66663H13.3332C16.6665 1.66663 18.3332 3.33329 18.3332 6.66663V10.8333C18.3332 14.1666 16.6665 15.8333 13.3332 15.8333H12.9165C12.6582 15.8333 12.4082 15.9583 12.2498 16.1666L10.9998 17.8333C10.4498 18.5666 9.54984 18.5666 8.99984 17.8333L7.74984 16.1666C7.6165 15.9833 7.30817 15.8333 7.08317 15.8333Z" stroke="#A6A6A6" stroke-width="2" stroke-miterlimit="10" stroke-linecap="round" stroke-linejoin="round"/>
<path d="M13.3305 9.16667H13.338" stroke="#A6A6A6" stroke-width="2" stroke-linecap="round" stroke-linejoin="round"/>
<path d="M9.99607 9.16667H10.0036" stroke="#A6A6A6" stroke-width="2" stroke-linecap="round" stroke-linejoin="round"/>
<path d="M6.66209 9.16667H6.66957" stroke="#A6A6A6" stroke-width="2" stroke-linecap="round" stroke-linejoin="round"/>
</svg>
