<svg width="32" height="32" viewBox="0 0 29 30" fill="none" xmlns="http://www.w3.org/2000/svg">
<path fill-rule="evenodd" clip-rule="evenodd" d="M20.8587 1.69466L20.9467 1.71866C22.4133 2.11199 23.5747 2.42266 24.488 2.75333C25.4227 3.09066 26.1853 3.47599 26.8133 4.06399C27.7273 4.92069 28.3667 6.02921 28.6507 7.24933C28.8467 8.08666 28.8 8.93999 28.624 9.91733C28.4547 10.8747 28.144 12.036 27.7507 13.5013L27.036 16.1667C26.644 17.632 26.332 18.7933 26.0027 19.7067C25.664 20.6413 25.2787 21.404 24.6907 22.032C23.8619 22.9169 22.7967 23.5453 21.6213 23.8427C21.277 24.6321 20.7752 25.3431 20.1467 25.932C19.5187 26.52 18.756 26.9053 17.8213 27.244C16.908 27.5747 15.7467 27.8853 14.2813 28.2787L14.192 28.3027C12.7253 28.6947 11.5653 29.0053 10.608 29.1773C9.63066 29.352 8.77733 29.3987 7.93866 29.204C6.7187 28.9191 5.61065 28.2787 4.75466 27.364C4.16799 26.7373 3.78133 25.9747 3.44266 25.04C3.11333 24.1267 2.80266 22.9653 2.40933 21.4987L1.69466 18.8347C1.30266 17.368 0.990661 16.208 0.819994 15.2507C0.645327 14.2733 0.598661 13.42 0.793327 12.5813C1.07825 11.3614 1.71858 10.2533 2.63333 9.39733C3.25999 8.81066 4.02266 8.42399 4.95733 8.08533C5.87066 7.75599 7.03199 7.44533 8.49733 7.05199L8.54266 7.03866L9.54399 6.77199C10.0667 4.90666 10.5253 3.58799 11.4213 2.63199C12.2775 1.71774 13.3855 1.07788 14.6053 0.793327C15.444 0.598661 16.296 0.645327 17.2747 0.819994C18.2307 0.990661 19.392 1.30266 20.8587 1.69466ZM8.93999 9.00399C7.48266 9.39466 6.43866 9.67733 5.63599 9.96666C4.82266 10.26 4.34666 10.532 3.99999 10.8573C3.37419 11.4431 2.93617 12.2013 2.74133 13.036C2.63466 13.5 2.63599 14.0493 2.78933 14.8987C2.94266 15.7613 3.23199 16.8413 3.63866 18.3613L4.32933 20.9373C4.73599 22.4573 5.02666 23.5373 5.32399 24.36C5.61733 25.1733 5.88933 25.6507 6.21466 25.9973C6.80041 26.6231 7.5586 27.0612 8.39333 27.256C8.85599 27.3627 9.40666 27.36 10.256 27.208C11.1187 27.0547 12.1987 26.7653 13.7187 26.3587C15.2387 25.9507 16.3187 25.6613 17.1427 25.3627C17.9547 25.0693 18.432 24.7973 18.7787 24.4733C18.9627 24.3 19.1293 24.1133 19.28 23.9147C19.0326 23.8793 18.7863 23.8371 18.5413 23.788C17.6453 23.6093 16.568 23.3213 15.2413 22.9653L15.164 22.9453C13.6987 22.552 12.5373 22.2413 11.624 21.9107C10.6893 21.5733 9.92666 21.188 9.29866 20.6C8.38418 19.7435 7.7443 18.6349 7.45999 17.4147C7.26533 16.5773 7.31199 15.724 7.48666 14.7453C7.65733 13.7893 7.96933 12.628 8.36133 11.1627L8.93999 9.00399ZM16.9227 2.78933C16.072 2.63599 15.5227 2.63333 15.06 2.74133C14.2253 2.93617 13.4671 3.37419 12.8813 3.99999C12.3 4.61999 11.9413 5.57999 11.32 7.85733C11.2187 8.22799 11.112 8.62666 10.996 9.05999L10.3053 11.636C9.89866 13.156 9.60933 14.236 9.45599 15.0987C9.30266 15.948 9.29999 16.4987 9.40799 16.9613C9.60284 17.7961 10.0409 18.5542 10.6667 19.14C11.0133 19.4653 11.4907 19.736 12.3027 20.0307C13.1267 20.328 14.2067 20.6173 15.7267 21.0253C17.0933 21.392 18.1067 21.6627 18.9307 21.8253C19.7507 21.9893 20.308 22.0293 20.764 21.9733C20.864 21.96 20.9587 21.944 21.052 21.9227C21.8867 21.7278 22.6449 21.2898 23.2307 20.664C23.556 20.3173 23.828 19.84 24.1213 19.028C24.4187 18.204 24.708 17.124 25.116 15.604L25.8067 13.028C26.2133 11.508 26.5027 10.428 26.656 9.56533C26.808 8.71599 26.812 8.16533 26.704 7.70266C26.5092 6.86794 26.0711 6.10975 25.4453 5.52399C25.0987 5.19866 24.6213 4.92799 23.8093 4.63333C22.984 4.33599 21.9053 4.04666 20.3853 3.63866C18.8653 3.23199 17.7853 2.94266 16.9227 2.78933ZM13.736 12.0747C13.77 11.9478 13.8287 11.8289 13.9087 11.7247C13.9887 11.6205 14.0885 11.5331 14.2023 11.4675C14.3161 11.4019 14.4417 11.3593 14.5719 11.3422C14.7021 11.3252 14.8345 11.3339 14.9613 11.368L21.4013 13.0933C21.6504 13.1682 21.8605 13.3372 21.987 13.5644C22.1136 13.7917 22.1466 14.0592 22.0791 14.3104C22.0117 14.5616 21.849 14.7766 21.6256 14.9098C21.4022 15.0431 21.1357 15.084 20.8827 15.024L14.4427 13.2987C14.1867 13.2299 13.9685 13.0624 13.836 12.8329C13.7035 12.6034 13.6676 12.3307 13.736 12.0747ZM12.7 15.9387C12.734 15.8116 12.7928 15.6926 12.8729 15.5883C12.9529 15.484 13.0528 15.3965 13.1668 15.3309C13.2807 15.2653 13.4065 15.2227 13.5369 15.2058C13.6673 15.1888 13.7997 15.1977 13.9267 15.232L17.7893 16.2667C18.0455 16.3353 18.264 16.5028 18.3966 16.7325C18.5293 16.9622 18.5653 17.2351 18.4967 17.4913C18.4281 17.7475 18.2605 17.966 18.0308 18.0986C17.8012 18.2313 17.5282 18.2673 17.272 18.1987L13.408 17.1627C13.1521 17.0939 12.9339 16.9264 12.8014 16.6969C12.6689 16.4674 12.6329 16.1947 12.7013 15.9387H12.7Z" fill="#273368"/>
</svg>
