<svg width="90" height="70" viewBox="0 0 90 70" fill="none" xmlns="http://www.w3.org/2000/svg">
<mask id="mask0_414_348" style="mask-type:alpha" maskUnits="userSpaceOnUse" x="0" y="0" width="90" height="70">
<rect width="90" height="70" fill="#DFE1E9"/>
</mask>
<g mask="url(#mask0_414_348)">
<path d="M84 0H6C2.68629 0 0 2.08934 0 4.66667V65.3333C0 67.9107 2.68629 70 6 70H84C87.3137 70 90 67.9107 90 65.3333V4.66667C90 2.08934 87.3137 0 84 0Z" fill="#8F9DDD"/>
<path fill-rule="evenodd" clip-rule="evenodd" d="M50.0882 45.7097H64.9118V18.2903H50.0882V45.7097ZM47 49H68V15H47V49Z" fill="#6675B4"/>
<path fill-rule="evenodd" clip-rule="evenodd" d="M79.1981 84.1089C69.1914 84.1089 61.0792 75.8638 61.0792 65.6932C61.0792 55.5224 69.1914 47.2772 79.1981 47.2772C89.2047 47.2772 97.3168 55.5224 97.3168 65.6932C97.3168 75.8638 89.2047 84.1089 79.1981 84.1089ZM49 66.0001C49 83.1208 62.6553 97 79.5001 97C96.3447 97 110 83.1208 110 66.0001C110 48.8792 96.3447 35 79.5001 35C62.6553 35 49 48.8792 49 66.0001Z" fill="#404B7C"/>
<path fill-rule="evenodd" clip-rule="evenodd" d="M49 -1C48.9408 9.50322 40.2347 18 29.5003 18C18.7665 18 10.0592 9.50322 10 -1H49Z" fill="#A5B0E3"/>
</g>
</svg>
