<svg width="90" height="68" viewBox="0 0 90 68" fill="none" xmlns="http://www.w3.org/2000/svg">
<mask id="mask0_504_1235" style="mask-type:alpha" maskUnits="userSpaceOnUse" x="0" y="0" width="90" height="68">
<rect width="90" height="68" rx="4" fill="#DFE1E9"/>
</mask>
<g mask="url(#mask0_504_1235)">
<path d="M84 -1H6C2.68629 -1 0 1.05949 0 3.6V63.4C0 65.9405 2.68629 68 6 68H84C87.3137 68 90 65.9405 90 63.4V3.6C90 1.05949 87.3137 -1 84 -1Z" fill="#70C4EC"/>
<path fill-rule="evenodd" clip-rule="evenodd" d="M18 -1C18 0.656194 16.6562 2 15 2C13.3425 2 12 0.656194 12 -1H18Z" fill="#34A2D7"/>
<path fill-rule="evenodd" clip-rule="evenodd" d="M1 0C1 6.62692 7.04324 12 14.5 12C21.9553 12 28 6.62692 28 0H22.9974C22.9974 4.17032 19.1931 7.55192 14.5 7.55192C9.80691 7.55192 6.00262 4.17032 6.00262 0H1Z" fill="#34A2D7"/>
<path fill-rule="evenodd" clip-rule="evenodd" d="M38 0C38 12.7019 27.7031 23 15 23C2.2969 23 -8 12.7019 -8 0H-3.20917C-3.20917 10.0568 4.94344 18.2095 15 18.2095C25.0566 18.2095 33.2092 10.0568 33.2092 0H38Z" fill="#34A2D7"/>
<path fill-rule="evenodd" clip-rule="evenodd" d="M82.3564 85.7304L64.1504 95.4445V44.4736L82.3564 34.7595V85.7304Z" fill="#31A3CF"/>
<path fill-rule="evenodd" clip-rule="evenodd" d="M38.9303 81.1831L56.2922 90.2555V40.5946L38.9303 31.5202V81.1831ZM56.87 92.0001C56.7678 92.0001 56.6656 91.976 56.5717 91.9257L38.0562 82.1568C37.856 82.0522 37.7329 81.851 37.7329 81.6318V30.3735C37.7329 30.1622 37.8476 29.9671 38.0375 29.8585C38.2252 29.7518 38.4588 29.7478 38.6505 29.8484L57.1683 39.6193C57.3665 39.7239 57.4896 39.925 57.4896 40.1443V91.4026C57.4896 91.6139 57.3749 91.809 57.1871 91.9156C57.0891 91.972 56.9806 92.0001 56.87 92.0001Z" fill="#31A3CF"/>
<path fill-rule="evenodd" clip-rule="evenodd" d="M57.3677 40.5946V90.2555L74.7278 81.1831V31.5202L57.3677 40.5946ZM56.7898 92.0001C56.6814 92.0001 56.5708 91.972 56.4749 91.9156C56.2851 91.809 56.1704 91.6139 56.1704 91.4026V40.1443C56.1704 39.925 56.2935 39.7239 56.4916 39.6193L75.0073 29.8484C75.1992 29.7478 75.4328 29.7518 75.6205 29.8585C75.8082 29.9671 75.925 30.1622 75.925 30.3735V81.6318C75.925 81.851 75.7999 82.0522 75.6017 82.1568L57.0881 91.9257C56.9942 91.976 56.892 92.0001 56.7898 92.0001Z" fill="#31A3CF"/>
<path fill-rule="evenodd" clip-rule="evenodd" d="M39.5236 30.516L56.5302 39.5116L73.5368 30.4543L56.5321 21.3991L39.5236 30.516ZM56.5292 40.6801C56.4288 40.6801 56.3284 40.6558 56.2362 40.6051L38.051 30.7589C37.8563 30.6535 37.7334 30.4507 37.7334 30.2317C37.7334 30.0128 37.8522 29.81 38.0469 29.7025L56.2341 19.7225C56.4165 19.6212 56.6398 19.6212 56.8242 19.7205L75.0115 29.6356C75.2061 29.7411 75.327 29.9438 75.327 30.1628C75.327 30.3818 75.2061 30.5846 75.0115 30.69L56.8242 40.6051C56.732 40.6538 56.6316 40.6801 56.5292 40.6801Z" fill="#31A3CF"/>
</g>
</svg>
