<svg width="32" height="32" viewBox="0 0 32 32" fill="none" xmlns="http://www.w3.org/2000/svg">
<path d="M18 13C18 12.7348 17.8946 12.4804 17.7071 12.2929C17.5196 12.1054 17.2652 12 17 12H9C8.73478 12 8.48043 12.1054 8.29289 12.2929C8.10536 12.4804 8 12.7348 8 13C8 13.2652 8.10536 13.5196 8.29289 13.7071C8.48043 13.8946 8.73478 14 9 14H17C17.2652 14 17.5196 13.8946 17.7071 13.7071C17.8946 13.5196 18 13.2652 18 13ZM16.6667 17C16.6667 16.7348 16.5613 16.4804 16.3738 16.2929C16.1862 16.1054 15.9319 16 15.6667 16H9C8.73478 16 8.48043 16.1054 8.29289 16.2929C8.10536 16.4804 8 16.7348 8 17C8 17.2652 8.10536 17.5196 8.29289 17.7071C8.48043 17.8946 8.73478 18 9 18H15.6667C15.9319 18 16.1862 17.8946 16.3738 17.7071C16.5613 17.5196 16.6667 17.2652 16.6667 17ZM17 20C17.2652 20 17.5196 20.1054 17.7071 20.2929C17.8946 20.4804 18 20.7348 18 21C18 21.2652 17.8946 21.5196 17.7071 21.7071C17.5196 21.8946 17.2652 22 17 22H9C8.73478 22 8.48043 21.8946 8.29289 21.7071C8.10536 21.5196 8 21.2652 8 21C8 20.7348 8.10536 20.4804 8.29289 20.2929C8.48043 20.1054 8.73478 20 9 20H17Z" fill="#273368"/>
<path fill-rule="evenodd" clip-rule="evenodd" d="M8 29H25.3333C26.3058 29 27.2384 28.6137 27.9261 27.9261C28.6137 27.2384 29 26.3058 29 25.3333V18C29 17.7348 28.8946 17.4804 28.7071 17.2929C28.5196 17.1054 28.2652 17 28 17H23.6667V6.59067C23.6667 4.69333 21.5213 3.58933 19.9773 4.692L19.744 4.85867C19.2331 5.22137 18.6217 5.41577 17.9951 5.41481C17.3686 5.41386 16.7578 5.21759 16.248 4.85333C15.3968 4.24756 14.3781 3.92204 13.3333 3.92204C12.2886 3.92204 11.2698 4.24756 10.4187 4.85333C9.90883 5.21759 9.29811 5.41386 8.67152 5.41481C8.04492 5.41577 7.43362 5.22137 6.92267 4.85867L6.68933 4.692C5.14533 3.58933 3 4.692 3 6.59067V24C3 25.3261 3.52678 26.5979 4.46447 27.5355C5.40215 28.4732 6.67392 29 8 29ZM11.5813 6.48C12.0933 6.1166 12.7055 5.92137 13.3333 5.92137C13.9611 5.92137 14.5734 6.1166 15.0853 6.48C15.9343 7.08683 16.9514 7.41362 17.9949 7.41481C19.0385 7.41601 20.0563 7.09155 20.9067 6.48667L21.14 6.32C21.1898 6.28455 21.2484 6.26347 21.3094 6.25907C21.3703 6.25467 21.4313 6.26712 21.4857 6.29507C21.5401 6.32301 21.5857 6.36536 21.6176 6.4175C21.6495 6.46963 21.6665 6.52954 21.6667 6.59067V25.3333C21.6667 25.9333 21.8107 26.5 22.0667 27H8C7.20435 27 6.44129 26.6839 5.87868 26.1213C5.31607 25.5587 5 24.7957 5 24V6.59067C5.00016 6.52954 5.01713 6.46963 5.04904 6.4175C5.08096 6.36536 5.1266 6.32301 5.18097 6.29507C5.23534 6.26712 5.29634 6.25467 5.35731 6.25907C5.41828 6.26347 5.47687 6.28455 5.52667 6.32L5.76 6.48667C6.61033 7.09155 7.62821 7.41601 8.67173 7.41481C9.71525 7.41362 10.7324 7.08683 11.5813 6.48ZM23.6667 25.3333V19H27V25.3333C27 25.7754 26.8244 26.1993 26.5118 26.5118C26.1993 26.8244 25.7754 27 25.3333 27C24.8913 27 24.4674 26.8244 24.1548 26.5118C23.8423 26.1993 23.6667 25.7754 23.6667 25.3333Z" fill="#273368"/>
</svg>
