<svg width="116" height="116" viewBox="0 0 116 116" fill="none" xmlns="http://www.w3.org/2000/svg">
<path d="M108.459 45.0166C106.515 42.985 104.504 40.8916 103.746 39.0508C103.045 37.3647 103.004 34.57 102.963 31.863C102.885 26.8305 102.803 21.1277 98.8375 17.1625C94.8723 13.1973 89.1695 13.1148 84.137 13.0375C81.43 12.9962 78.6353 12.955 76.9492 12.2537C75.1136 11.4958 73.015 9.48484 70.9834 7.54094C67.4256 4.12234 63.3831 0.25 58 0.25C52.6169 0.25 48.5795 4.12234 45.0166 7.54094C42.985 9.48484 40.8916 11.4958 39.0508 12.2537C37.375 12.955 34.57 12.9962 31.863 13.0375C26.8305 13.1148 21.1277 13.1973 17.1625 17.1625C13.1973 21.1277 13.1406 26.8305 13.0375 31.863C12.9962 34.57 12.955 37.3647 12.2537 39.0508C11.4958 40.8864 9.48484 42.985 7.54094 45.0166C4.12234 48.5744 0.25 52.6169 0.25 58C0.25 63.3831 4.12234 67.4205 7.54094 70.9834C9.48484 73.015 11.4958 75.1084 12.2537 76.9492C12.955 78.6353 12.9962 81.43 13.0375 84.137C13.1148 89.1695 13.1973 94.8723 17.1625 98.8375C21.1277 102.803 26.8305 102.885 31.863 102.963C34.57 103.004 37.3647 103.045 39.0508 103.746C40.8864 104.504 42.985 106.515 45.0166 108.459C48.5744 111.878 52.6169 115.75 58 115.75C63.3831 115.75 67.4205 111.878 70.9834 108.459C73.015 106.515 75.1084 104.504 76.9492 103.746C78.6353 103.045 81.43 103.004 84.137 102.963C89.1695 102.885 94.8723 102.803 98.8375 98.8375C102.803 94.8723 102.885 89.1695 102.963 84.137C103.004 81.43 103.045 78.6353 103.746 76.9492C104.504 75.1136 106.515 73.015 108.459 70.9834C111.878 67.4256 115.75 63.3831 115.75 58C115.75 52.6169 111.878 48.5795 108.459 45.0166ZM81.5434 48.5434L52.6684 77.4184C52.2853 77.802 51.8304 78.1062 51.3296 78.3138C50.8289 78.5214 50.2921 78.6282 49.75 78.6282C49.2079 78.6282 48.6711 78.5214 48.1704 78.3138C47.6696 78.1062 47.2147 77.802 46.8316 77.4184L34.4566 65.0434C34.0733 64.6602 33.7693 64.2052 33.5619 63.7044C33.3545 63.2037 33.2477 62.667 33.2477 62.125C33.2477 61.583 33.3545 61.0463 33.5619 60.5456C33.7693 60.0448 34.0733 59.5898 34.4566 59.2066C35.2306 58.4325 36.2804 57.9977 37.375 57.9977C37.917 57.9977 38.4537 58.1045 38.9544 58.3119C39.4552 58.5193 39.9102 58.8233 40.2934 59.2066L49.75 68.6683L75.7066 42.7066C76.0898 42.3233 76.5448 42.0193 77.0456 41.8119C77.5463 41.6045 78.083 41.4977 78.625 41.4977C79.167 41.4977 79.7037 41.6045 80.2044 41.8119C80.7052 42.0193 81.1602 42.3233 81.5434 42.7066C81.9267 43.0898 82.2307 43.5448 82.4381 44.0456C82.6455 44.5463 82.7523 45.083 82.7523 45.625C82.7523 46.167 82.6455 46.7037 82.4381 47.2044C82.2307 47.7052 81.9267 48.1602 81.5434 48.5434Z" fill="#82BF40"/>
</svg>
