<svg width="32" height="32" viewBox="0 0 24 24" fill="none" xmlns="http://www.w3.org/2000/svg">
<path d="M7.42858 17.9962V5.90476M12 18.0724V12M16.5714 18.0952V8.95238M4.38096 1.33333H19.6191C20.4273 1.33333 21.2025 1.65442 21.774 2.22596C22.3456 2.79749 22.6667 3.57267 22.6667 4.38095V19.619C22.6667 20.4273 22.3456 21.2025 21.774 21.774C21.2025 22.3456 20.4273 22.6667 19.6191 22.6667H4.38096C3.57268 22.6667 2.79751 22.3456 2.22597 21.774C1.65443 21.2025 1.33334 20.4273 1.33334 19.619V4.38095C1.33334 3.57267 1.65443 2.79749 2.22597 2.22596C2.79751 1.65442 3.57268 1.33333 4.38096 1.33333Z" stroke="#273368" stroke-width="2" stroke-linecap="round" stroke-linejoin="round"/>
</svg>
