<svg width="24" height="25" viewBox="0 0 24 25" fill="none" xmlns="http://www.w3.org/2000/svg">
<path d="M12 2.5C11.782 2.5 11.568 2.50167 11.358 2.505L10.742 2.522L10.443 2.535L9.864 2.569L9.311 2.615C4.526 3.079 2.579 5.026 2.115 9.811L2.069 10.364L2.035 10.943C2.02967 11.041 2.02533 11.1407 2.022 11.242L2.005 11.858L2.001 12.176L2 12.5C2 12.718 2.00167 12.932 2.005 13.142L2.022 13.758L2.035 14.057L2.069 14.636L2.115 15.189C2.579 19.974 4.526 21.921 9.311 22.385L9.864 22.431L10.443 22.465C10.541 22.4703 10.6407 22.4747 10.742 22.478L11.358 22.495L12 22.5L12.642 22.495L13.258 22.478L13.557 22.465L14.136 22.431L14.689 22.385C19.474 21.921 21.421 19.974 21.885 15.189L21.931 14.636L21.965 14.057C21.9703 13.959 21.9747 13.8593 21.978 13.758L21.995 13.142L22 12.5L21.995 11.858L21.978 11.242L21.965 10.943L21.931 10.364L21.885 9.811C21.421 5.026 19.474 3.079 14.689 2.615L14.136 2.569L13.557 2.535L13.258 2.522L12.642 2.505L12.324 2.501L12 2.5ZM14.293 9.793C14.473 9.61365 14.7144 9.50953 14.9684 9.50177C15.2223 9.49402 15.4697 9.58321 15.6603 9.75125C15.8508 9.91928 15.9703 10.1536 15.9944 10.4065C16.0185 10.6594 15.9454 10.912 15.79 11.113L15.707 11.207L11.707 15.207C11.5348 15.3792 11.3057 15.4826 11.0627 15.4979C10.8197 15.5132 10.5794 15.4393 10.387 15.29L10.293 15.207L8.293 13.207C8.11365 13.027 8.00953 12.7856 8.00177 12.5316C7.99402 12.2777 8.08321 12.0303 8.25125 11.8397C8.41928 11.6492 8.65355 11.5297 8.90647 11.5056C9.1594 11.4815 9.41201 11.5546 9.613 11.71L9.707 11.793L11 13.085L14.293 9.793Z" fill="#989898" fill-opacity="0.55"/>
</svg>
